<svg xmlns="http://www.w3.org/2000/svg" xmlns:xlink="http://www.w3.org/1999/xlink" id="Layer_1" data-name="Layer 1" viewBox="0 0 2109.96 2271.54"><defs><linearGradient id="linear-gradient" x1="1078.62" x2="1003.25" y1="1731.89" y2="1982.93" gradientUnits="userSpaceOnUse"><stop offset=".04" stop-color="#fffbfe"/><stop offset=".1" stop-color="#fdf8f9"/><stop offset=".16" stop-color="#f8f0ec"/><stop offset=".23" stop-color="#efe3d6"/><stop offset=".3" stop-color="#e3d0b7"/><stop offset=".37" stop-color="#d3b98f"/><stop offset=".44" stop-color="#c09c5f"/><stop offset=".46" stop-color="#bc9553"/><stop offset=".56" stop-color="#b68b48"/><stop offset=".71" stop-color="#b28440"/><stop offset="1" stop-color="#b1833e"/></linearGradient><linearGradient id="linear-gradient-2" x1="1057.82" x2="1011.57" y1="1825.92" y2="1911.18" gradientUnits="userSpaceOnUse"><stop offset="0" stop-color="#f8f7f0"/><stop offset=".53" stop-color="#fbfdf1"/><stop offset=".55" stop-color="#f6f2dd"/><stop offset=".59" stop-color="#eddfb9"/><stop offset=".63" stop-color="#e5cf9b"/><stop offset=".68" stop-color="#dfc282"/><stop offset=".73" stop-color="#dab86f"/><stop offset=".78" stop-color="#d7b162"/><stop offset=".86" stop-color="#d5ad5a"/><stop offset="1" stop-color="#d5ac58"/></linearGradient><linearGradient id="linear-gradient-3" x1="1692.96" x2="1606.37" y1="1768.62" y2="2035.24" gradientUnits="userSpaceOnUse"><stop offset=".04" stop-color="#fffbfe"/><stop offset=".05" stop-color="#fef9fa"/><stop offset=".17" stop-color="#f1e2c7"/><stop offset=".28" stop-color="#e8d1a2"/><stop offset=".37" stop-color="#e3c78b"/><stop offset=".42" stop-color="#e1c483"/><stop offset=".43" stop-color="#dfc180"/><stop offset=".49" stop-color="#ceaa68"/><stop offset=".57" stop-color="#c19955"/><stop offset=".66" stop-color="#b88c48"/><stop offset=".78" stop-color="#b28540"/><stop offset="1" stop-color="#b1833e"/></linearGradient><linearGradient id="linear-gradient-4" x1="1635.46" x2="1635.46" y1="641.88" y2="804.67" gradientUnits="userSpaceOnUse"><stop offset="0" stop-color="#13182c"/><stop offset="1" stop-color="#050c0e"/></linearGradient><linearGradient xlink:href="#linear-gradient-4" id="linear-gradient-5" x1="446.77" x2="446.77" y1="655.1" y2="785"/><linearGradient id="linear-gradient-6" x1="1041.61" x2="1038.81" y1="141.44" y2="300.75" gradientUnits="userSpaceOnUse"><stop offset=".04" stop-color="#fffbfe"/><stop offset=".14" stop-color="#fbf2e3"/><stop offset=".3" stop-color="#f5e6bf"/><stop offset=".43" stop-color="#f2dea8"/><stop offset=".52" stop-color="#f1dca0"/><stop offset=".52" stop-color="#f0db9e"/><stop offset=".57" stop-color="#dcbf81"/><stop offset=".62" stop-color="#cca968"/><stop offset=".68" stop-color="#c09855"/><stop offset=".75" stop-color="#b78c48"/><stop offset=".83" stop-color="#b28540"/><stop offset="1" stop-color="#b1833e"/></linearGradient><linearGradient id="linear-gradient-7" x1="614.12" x2="670.81" y1="287.27" y2="412.48" gradientUnits="userSpaceOnUse"><stop offset=".04" stop-color="#deab68"/><stop offset=".07" stop-color="#deae6a"/><stop offset=".28" stop-color="#e2c47c"/><stop offset=".42" stop-color="#e4cd83"/><stop offset=".43" stop-color="#e4cc82"/><stop offset=".63" stop-color="#ecc97b"/><stop offset=".99" stop-color="#efc87a"/></linearGradient><linearGradient xlink:href="#linear-gradient-7" id="linear-gradient-8" x1="654.2" x2="527.43" y1="499.39" y2="403.45"/><linearGradient id="linear-gradient-9" x1="642.99" x2="1002.98" y1="539.15" y2="539.15" gradientUnits="userSpaceOnUse"><stop offset="0" stop-color="#c49f4e"/><stop offset=".44" stop-color="#c5a152"/><stop offset=".52" stop-color="#cbab64"/><stop offset=".69" stop-color="#dbc593"/><stop offset=".92" stop-color="#f5eedf"/><stop offset="1" stop-color="#fffffd"/></linearGradient><linearGradient id="linear-gradient-10" x1="1180.36" x2="1377.62" y1="543.3" y2="543.3" gradientUnits="userSpaceOnUse"><stop offset="0" stop-color="#c49f4e"/><stop offset=".36" stop-color="#c5a254"/><stop offset=".48" stop-color="#c7a558"/><stop offset=".51" stop-color="#ccad66"/><stop offset=".63" stop-color="#deca9c"/><stop offset=".75" stop-color="#ece1c6"/><stop offset=".85" stop-color="#f6f1e4"/><stop offset=".94" stop-color="#fcfbf6"/><stop offset="1" stop-color="#fffffd"/></linearGradient><linearGradient xlink:href="#linear-gradient-10" id="linear-gradient-11" x1="1073.38" x2="1433.37" y1="539.15" y2="539.15"/><linearGradient xlink:href="#linear-gradient-10" id="linear-gradient-12" x1="734.84" x2="1010.53" y1="454.36" y2="454.36"/><linearGradient id="linear-gradient-13" x1="1010.09" x2="805.77" y1="365.2" y2="439.95" gradientUnits="userSpaceOnUse"><stop offset="0" stop-color="#fffffd"/><stop offset=".06" stop-color="#fcfbf6"/><stop offset=".15" stop-color="#f6f1e4"/><stop offset=".25" stop-color="#ece1c6"/><stop offset=".37" stop-color="#deca9c"/><stop offset=".49" stop-color="#ccad66"/><stop offset=".52" stop-color="#c7a558"/><stop offset=".64" stop-color="#c5a254"/><stop offset="1" stop-color="#c49f4e"/></linearGradient><linearGradient id="linear-gradient-14" x1="1302.58" x2="1062.13" y1="453.08" y2="353.42" gradientUnits="userSpaceOnUse"><stop offset="0" stop-color="#fffffd"/><stop offset=".08" stop-color="#fcfbf6"/><stop offset=".2" stop-color="#f6f1e4"/><stop offset=".33" stop-color="#ece1c6"/><stop offset=".49" stop-color="#deca9c"/><stop offset=".65" stop-color="#ccad66"/><stop offset=".69" stop-color="#c7a558"/><stop offset=".77" stop-color="#c5a254"/><stop offset="1" stop-color="#c49f4e"/></linearGradient><linearGradient id="linear-gradient-15" x1="1044.4" x2="1342.16" y1="390.75" y2="512.85" gradientUnits="userSpaceOnUse"><stop offset="0" stop-color="#c49f4e"/><stop offset=".36" stop-color="#c5a254"/><stop offset=".48" stop-color="#c7a558"/><stop offset=".51" stop-color="#ccad66"/><stop offset=".63" stop-color="#deca9c"/><stop offset=".75" stop-color="#ece1c6"/><stop offset=".85" stop-color="#f6f1e4"/><stop offset=".94" stop-color="#fcfbf6"/><stop offset="1" stop-color="#fffffd"/></linearGradient><linearGradient id="linear-gradient-16" x1="-57.1" x2="1317.39" y1="541.77" y2="-52.51" gradientUnits="userSpaceOnUse"><stop offset="0" stop-color="#ffffe9"/><stop offset=".04" stop-color="#e6d8ad"/><stop offset=".1" stop-color="#be9a4c"/><stop offset=".12" stop-color="#c4a151"/><stop offset=".28" stop-color="#e4c570"/><stop offset=".4" stop-color="#f7dc84"/><stop offset=".48" stop-color="#ffe58b"/><stop offset=".49" stop-color="#f8dd84"/><stop offset=".55" stop-color="#e2c46f"/><stop offset=".62" stop-color="#d2b15f"/><stop offset=".7" stop-color="#c6a454"/><stop offset=".8" stop-color="#bf9c4d"/><stop offset="1" stop-color="#be9a4c"/></linearGradient><linearGradient id="linear-gradient-17" x1="760.81" x2="382.7" y1="825.41" y2="1173.62" gradientUnits="userSpaceOnUse"><stop offset="0" stop-color="#eccb7d"/><stop offset=".51" stop-color="#e1c67d"/><stop offset=".56" stop-color="#ddc177"/><stop offset=".83" stop-color="#d0ae61"/><stop offset="1" stop-color="#cba759"/></linearGradient><linearGradient id="linear-gradient-18" x1="828.78" x2="535.38" y1="858.26" y2="1198.37" gradientUnits="userSpaceOnUse"><stop offset="0" stop-color="#eccb7d"/><stop offset=".51" stop-color="#dcc278"/><stop offset=".51" stop-color="#dbc177"/><stop offset=".81" stop-color="#cfae61"/><stop offset="1" stop-color="#cba759"/></linearGradient><linearGradient id="linear-gradient-19" x1="1320.84" x2="1721.69" y1="808.61" y2="1192.64" gradientUnits="userSpaceOnUse"><stop offset="0" stop-color="#c39b5b"/><stop offset=".52" stop-color="#c5a159"/><stop offset=".69" stop-color="#c7a558"/><stop offset=".75" stop-color="#b0975a"/><stop offset=".85" stop-color="#92845d"/><stop offset=".93" stop-color="#80795f"/><stop offset=".99" stop-color="#7a7560"/></linearGradient><linearGradient id="linear-gradient-20" x1="1297.87" x2="1772.16" y1="893.37" y2="893.37" gradientUnits="userSpaceOnUse"><stop offset="0" stop-color="#c39b5b"/><stop offset=".08" stop-color="#c59e61"/><stop offset=".2" stop-color="#ccaa73"/><stop offset=".34" stop-color="#d7bc91"/><stop offset=".5" stop-color="#e6d6bb"/><stop offset=".67" stop-color="#f9f6f0"/><stop offset=".68" stop-color="#fcfaf7"/><stop offset=".71" stop-color="#f4eee1"/><stop offset=".78" stop-color="#e1d0ac"/><stop offset=".84" stop-color="#d1b882"/><stop offset=".9" stop-color="#c7a764"/><stop offset=".95" stop-color="#c09d52"/><stop offset=".99" stop-color="#be9a4c"/></linearGradient><linearGradient id="linear-gradient-21" x1="397.11" x2="413.46" y1="1806.65" y2="1752.92" gradientUnits="userSpaceOnUse"><stop offset="0" stop-color="#e0ba6f"/><stop offset=".23" stop-color="#e9c374"/><stop offset=".55" stop-color="#f1cc7a"/><stop offset=".55" stop-color="#f1cc7c"/><stop offset=".62" stop-color="#f1d38f"/><stop offset=".7" stop-color="#f1d89c"/><stop offset=".8" stop-color="#f1dba4"/><stop offset="1" stop-color="#f1dca7"/></linearGradient><linearGradient id="linear-gradient-22" x1="177.08" x2="348.54" y1="1668.48" y2="1824.06" gradientUnits="userSpaceOnUse"><stop offset="0" stop-color="#87b8e3"/><stop offset=".03" stop-color="#75a1cb"/><stop offset=".09" stop-color="#597ea7"/><stop offset=".14" stop-color="#486890"/><stop offset=".16" stop-color="#426188"/><stop offset=".28" stop-color="#425f81"/><stop offset=".53" stop-color="#425d79"/><stop offset="1" stop-color="#435d77"/></linearGradient><linearGradient id="linear-gradient-23" x1="155.18" x2="126.52" y1="1467.63" y2="1504.38" gradientUnits="userSpaceOnUse"><stop offset="0" stop-color="#6199d8"/><stop offset=".25" stop-color="#528dc9"/><stop offset=".48" stop-color="#4a87c2"/><stop offset=".49" stop-color="#4a86c1"/><stop offset=".66" stop-color="#4c7fb9"/><stop offset="1" stop-color="#4d7db7"/></linearGradient><linearGradient id="linear-gradient-24" x1="941.42" x2="1138.64" y1="1535.69" y2="1535.69" gradientUnits="userSpaceOnUse"><stop offset="0" stop-color="#bba76f"/><stop offset=".13" stop-color="#c9b06d"/><stop offset=".38" stop-color="#dfc06a"/><stop offset=".53" stop-color="#e8c66a"/><stop offset="1" stop-color="#d5ac58"/></linearGradient><linearGradient id="linear-gradient-25" x1="1215.93" x2="1552.31" y1="945.11" y2="1303.29" gradientUnits="userSpaceOnUse"><stop offset="0" stop-color="#d1b774"/><stop offset=".51" stop-color="#c7a563"/><stop offset=".54" stop-color="#d1b57e"/><stop offset=".62" stop-color="#e3d4b1"/><stop offset=".68" stop-color="#f1ead6"/><stop offset=".73" stop-color="#f9f8ed"/><stop offset=".76" stop-color="#fdfdf6"/><stop offset=".77" stop-color="#f8f5e7"/><stop offset=".8" stop-color="#efe6c9"/><stop offset=".82" stop-color="#e8d9b0"/><stop offset=".85" stop-color="#e2cf9d"/><stop offset=".88" stop-color="#dec990"/><stop offset=".92" stop-color="#dcc588"/><stop offset="1" stop-color="#dcc486"/></linearGradient><linearGradient id="linear-gradient-26" x1="1868.09" x2="1688.06" y1="1380.74" y2="1702.8" gradientUnits="userSpaceOnUse"><stop offset=".04" stop-color="#fffeff"/><stop offset=".17" stop-color="#f8f9fc"/><stop offset=".42" stop-color="#f0f5f9"/><stop offset=".45" stop-color="#e7e7e2"/><stop offset=".49" stop-color="#dbd3be"/><stop offset=".54" stop-color="#d0c1a0"/><stop offset=".6" stop-color="#c8b387"/><stop offset=".66" stop-color="#c1a874"/><stop offset=".73" stop-color="#bca067"/><stop offset=".82" stop-color="#b99c5f"/><stop offset=".99" stop-color="#b99b5d"/></linearGradient><linearGradient id="linear-gradient-27" x1="1699.84" x2="1217.07" y1="1275.12" y2="2175.25" gradientUnits="userSpaceOnUse"><stop offset=".04" stop-color="#fff"/><stop offset=".1" stop-color="#f5fdff"/><stop offset=".3" stop-color="#dff8ff"/><stop offset=".42" stop-color="#d7f7ff"/><stop offset=".43" stop-color="#cbebf5"/><stop offset=".48" stop-color="#a8c7d9"/><stop offset=".53" stop-color="#8aa9c1"/><stop offset=".59" stop-color="#7290ae"/><stop offset=".65" stop-color="#607d9f"/><stop offset=".72" stop-color="#527094"/><stop offset=".82" stop-color="#4b688e"/><stop offset=".99" stop-color="#49668d"/></linearGradient><linearGradient id="linear-gradient-28" x1="1201.45" x2="1450.93" y1="1752.44" y2="1433.81" gradientUnits="userSpaceOnUse"><stop offset="0" stop-color="#486992"/><stop offset=".02" stop-color="#496b96"/><stop offset=".24" stop-color="#5986ba"/><stop offset=".42" stop-color="#6396d1"/><stop offset=".53" stop-color="#679cda"/><stop offset="1" stop-color="#6082b0"/></linearGradient><linearGradient id="linear-gradient-29" x1="1081.28" x2="1385.27" y1="1684.82" y2="1368.37" gradientUnits="userSpaceOnUse"><stop offset="0" stop-color="#f2cf8d"/><stop offset=".17" stop-color="#f7e2ba"/><stop offset=".33" stop-color="#fbf1df"/><stop offset=".45" stop-color="#fefbf6"/><stop offset=".53" stop-color="#fff"/><stop offset="1" stop-color="#feffff"/></linearGradient><linearGradient id="linear-gradient-30" x1="575.84" x2="981.84" y1="1556.6" y2="1696.76" gradientUnits="userSpaceOnUse"><stop offset="0" stop-color="#bead74"/><stop offset=".11" stop-color="#c9b371"/><stop offset=".37" stop-color="#dfc16b"/><stop offset=".53" stop-color="#e8c66a"/><stop offset="1" stop-color="#d5ac58"/></linearGradient><linearGradient id="linear-gradient-31" x1="796.88" x2="638.03" y1="1586.05" y2="1847.21" gradientUnits="userSpaceOnUse"><stop offset="0" stop-color="#74a1ce"/><stop offset=".75" stop-color="#386a98"/><stop offset=".99" stop-color="#6280a5"/></linearGradient><linearGradient id="linear-gradient-32" x1="1868.19" x2="1975.18" y1="1229.71" y2="1409.58" gradientUnits="userSpaceOnUse"><stop offset=".04" stop-color="#c3a878"/><stop offset=".06" stop-color="#c1a97d"/><stop offset=".22" stop-color="#b8b2a1"/><stop offset=".34" stop-color="#b2b8b8"/><stop offset=".42" stop-color="#b0bbc1"/><stop offset=".46" stop-color="#9baab8"/><stop offset=".53" stop-color="#8296ae"/><stop offset=".6" stop-color="#6f87a6"/><stop offset=".68" stop-color="#627da1"/><stop offset=".79" stop-color="#5a769d"/><stop offset="1" stop-color="#58759d"/></linearGradient><linearGradient id="linear-gradient-33" x1="1006.8" x2="1278.66" y1="1133.07" y2="1133.07" gradientUnits="userSpaceOnUse"><stop offset="0" stop-color="#fffffd"/><stop offset=".76" stop-color="#fffffd"/><stop offset=".77" stop-color="#f4efe6"/><stop offset=".79" stop-color="#e4d8c2"/><stop offset=".81" stop-color="#d7c3a4"/><stop offset=".84" stop-color="#ccb38b"/><stop offset=".86" stop-color="#c3a678"/><stop offset=".89" stop-color="#bd9d6b"/><stop offset=".93" stop-color="#ba9863"/><stop offset="1" stop-color="#b99761"/></linearGradient><linearGradient xlink:href="#linear-gradient-16" id="linear-gradient-34" x1="1874" x2="190.23" y1="412.52" y2="1066.6"/><linearGradient id="linear-gradient-35" x1="1058.69" x2="1521.22" y1="2164.19" y2="1512.92" gradientUnits="userSpaceOnUse"><stop offset="0" stop-color="#56769e"/><stop offset=".75" stop-color="#638bbd"/><stop offset="1" stop-color="#405c6f"/></linearGradient><linearGradient id="linear-gradient-36" x1="1562.24" x2="1241.44" y1="1414.76" y2="1827.14" gradientUnits="userSpaceOnUse"><stop offset="0" stop-color="#dadde4"/><stop offset=".27" stop-color="#fffffd"/><stop offset=".72" stop-color="#b6cbde"/><stop offset="1" stop-color="#4d7191"/></linearGradient><radialGradient id="radial-gradient" cx="1655.88" cy="688.34" r="71.6" fx="1655.88" fy="688.34" gradientUnits="userSpaceOnUse"><stop offset="0" stop-color="#fefaf8"/><stop offset=".57" stop-color="#fef9fa"/><stop offset=".61" stop-color="#d9e0ec"/><stop offset=".67" stop-color="#b3c5de"/><stop offset=".73" stop-color="#93b0d2"/><stop offset=".79" stop-color="#7b9fc9"/><stop offset=".85" stop-color="#6993c3"/><stop offset=".92" stop-color="#5f8cbf"/><stop offset="1" stop-color="#5c8abe"/></radialGradient><style>.cls-111,.cls-112,.cls-23,.cls-24,.cls-31,.cls-49,.cls-69,.cls-71,.cls-98{stroke-width:0}.cls-23{fill:#c7af61}.cls-24{fill:#be9a4c}.cls-31{fill:#c6a752}.cls-49{fill:#fefeff}.cls-69{fill:#775626}.cls-71{fill:#fafcff}.cls-98{fill:#fff}.cls-111{fill:#fefefe}.cls-112{fill:#121b26}</style></defs><path d="m347.34 1926.96-17.72-18.82s-24.25-33.03 13.59-45.18 146.7 8.82 146.7 8.82l-142.58 55.19Z" class="cls-112"/><path d="M2057.4 1162.04c-.72-20.9-11.63-43.45-33.82-60.54.83-2.81 1.35-5.75 1.57-8.76 6.77-102.91-2.64-205.76-28.01-305.65-24.73-97.41-64.16-190.3-117.17-276.1-52.88-85.59-118.16-162.29-194.04-227.97-77.46-67.08-164.51-121.34-258.73-161.32a40.2 40.2 0 0 0-15.67-3.19c-3.7 0-7.36.53-10.89 1.54-5.9-10.68-16.42-18.26-28.71-20.27-2.18-.36-4.34-.53-6.49-.53-12.67 0-24.75 6.01-32.39 16.44-.36.47-.91 1.23-1.63 2.24-2.39-.97-4.89-1.76-7.47-2.26-13.33-2.64-51.21-10.6-66.34-15.63-15.42-5.14-42.03-21.87-55.15-31.18a40.07 40.07 0 0 0-23.29-7.45c-10.98 0-21.85 4.46-29.74 13.12-2.86 3.13-5.1 6.64-6.79 10.32-27.25-16.25-62.87-28.32-102.7-28.32-2.86 0-5.75.06-8.63.19-37.61 1.61-68.98 13.28-93.39 28.09a39.8 39.8 0 0 0-5.16-7.93c-7.87-9.37-19.23-14.24-30.74-14.24-8.19 0-16.42 2.45-23.5 7.49-13.16 9.33-39.75 26.06-55.17 31.2-15.12 5.03-53.03 12.99-66.34 15.63a40.1 40.1 0 0 0-14.64 6.09c-3.64-3.64-7.34-6.9-11.06-9.67a40.25 40.25 0 0 0-23.95-7.91c-4.12 0-8.29.63-12.33 1.95-8.97 2.88-16.52 8.82-21.49 16.58-3.68-1.1-7.51-1.67-11.34-1.67-5.46 0-10.96 1.1-16.14 3.38-141.64 62.09-268.4 157.87-366.55 277.01C178.1 525.81 107.49 673.99 75.27 831.25c-13.67 66.78-20.46 135.04-20.18 202.9.04 9.46 3.43 18.59 9.54 25.83 2.05 2.41 4.1 4.97 6.09 7.55 2.43 3.19 4.89 6.62 7.49 10.24l3.19 4.46c1.44 2.01 3.22 4.51 5.31 7.11l.8.97c.99 1.21 1.99 2.39 2.98 3.51 1.97 3.22 3.87 6.09 5.73 8.78a40 40 0 0 0-3.13 15.51c0 3.87.17 95.49 14.74 154.72 8.38 33.99 26.78 94.98 61.7 155.12-25.7-15.99-54.91-27.63-62.47-30.5-4.65-1.8-9.52-2.67-14.36-2.67-7.87 0-15.65 2.31-22.36 6.79a40.17 40.17 0 0 0-17.83 32.37c-.17 6.22.44 39.45 28.37 82.52 29.59 45.67 84.55 63.88 90.71 65.81.06.02.13.04.17.06-5.14 6.77-9.01 14.36-11.59 21.79-2.58 7.36-2.88 15-1.25 22.15-3.34 2.69-6.64 5.96-9.82 10.09-15.72 20.43-27.16 63.35-18.23 97.05 5.73 21.58 24.52 41.97 107.27 87.91 42.22 23.42 82.84 43.17 84.55 44a39.95 39.95 0 0 0 17.52 4.04c.21 0 .4-.02.59-.02-1.21 1.23 39.13 14.6 63 23.14-.38 1.59-.74 3.17-1.06 4.76-22.15.53-74.29 8.86-73.13 10.87-14.7 5.67-51.45 12.52-52.71 20.54-1.71 10.68 38.48 42.24 44.93 50.94 3.49 4.72 44.99 43.47 117.08 58.74 3.83.8 7.66 1.54 11.47 2.18 6.94 7.53 14.53 14.91 22.76 22.08 30.33 26.57 69.21 50.6 114.88 71.35 109.2 49.62 257.31 80.33 420.61 81.01h1.03c1.48 0 2.95.03 4.43.03 186.47 0 353.54-39.2 466.16-101.05 22.89-11.27 43.05-25.02 62.93-41.42.76-.61 1.52-1.25 2.31-1.88 1.73-1.37 3.43-2.79 5.1-4.21 4.25 1.06 8.5 2.5 12.61 4.36 25.83 11.76 54.81 18.36 85.4 18.36 108.31 0 196.41-82.6 196.41-184.16v-.42c12.54-1.88 35.79-6.05 60.16-13.81 34.71-11.04 56.29-41.69 68.28-65.51 3.55-7.04 5.54-12.12 5.9-13.05a40.27 40.27 0 0 0-4.57-37.34 40.2 40.2 0 0 0-32.98-17.2h-.47c-2.77.02-6.64.11-11.3.28 1.97-2.83 3.81-5.75 5.46-8.78 4.59-8.4 8.76-17.22 12.38-26.19 15.4-38.1 16.61-67.99 16.69-71.29a40.17 40.17 0 0 0-16.94-33.87c-6.87-4.89-15.02-7.4-23.23-7.4-4.84 0-9.69.89-14.34 2.66-2.58.97-7.11 2.75-12.95 5.18 35.41-63.61 60.94-122.75 72.01-149.66 6.35-2.35 12.14-6.16 16.77-11.25 15.72-17.28 40.51-74.63 16.84-141.5-1.8-5.12-3.87-10.07-6.18-14.91.36-.08.72-.15 1.06-.23a40.18 40.18 0 0 0 27.63-25.19c7.91-21.81 12.97-43.3 18.3-67.12.57-2.54.85-5.08.93-7.62 8.36-10.2 13.45-23.25 12.92-38.73Z" class="cls-112"/><path d="M1140.7 1860.56c-6.35 1.23-12.66 3.02-18.92 5.48.05 1.23.09 2.47.09 3.72 0 48.51-39.32 87.82-87.82 87.82s-86.7-38.24-87.77-85.81c-10.06-32.91 7.05-70.79 37.95-88.68 29.61-16.92 61.35-16.92 90.96-6.35 35.26 13.71 63.25 45.58 65.51 83.82 10.1-1.95 20.31-2.51 30.6-2.12-3.88-69.99-61.92-125.63-132.96-125.63s-133.09 59.63-133.09 133.09 59.63 133.09 133.09 133.09 133.18-59.54 133.18-133.09c0-2.51-.08-4.99-.22-7.47-10.28-.39-20.5.17-30.6 2.12Z" style="stroke-width:0;fill:url(#linear-gradient)"/><path d="M1075.18 1776.75c-29.61-10.58-61.35-10.58-90.96 6.35-30.9 17.89-48.01 55.77-37.95 88.68-.01-.67-.05-1.34-.05-2.01 0-48.51 39.32-87.82 87.82-87.82s85.78 37.32 87.73 84.11c6.26-2.46 12.57-4.25 18.92-5.48-2.26-38.24-30.25-70.1-65.51-83.82Z" class="cls-24"/><path d="M1034.03 1821.12c-26.88 0-48.67 21.79-48.67 48.67s21.79 48.67 48.67 48.67 48.67-21.79 48.67-48.67-21.79-48.67-48.67-48.67m19.58 64.65c-1.15 1.96-3.76 2.62-5.72 1.5-6.64-3.78-10.51-10.59-15.68-15.95-1.83-1.9-3.46-4-5.28-5.91-.57-.59-1.14-1.17-1.75-1.73-.25-.23-.5-.46-.76-.68-.1-.09-.21-.17-.32-.26l-1.33-.82c-.09-.02-.19-.05-.23-.1-2.32-.02-4.04-1.93-4.14-4.18-.1-2.26 1.99-4.17 4.18-4.18 3.56 0 6.57 2.43 9.01 4.77 2.08 2 3.89 4.26 5.81 6.41 2.36 2.63 4.64 5.3 6.9 8.03 1.26 1.52 2.54 3.01 3.95 4.39q.945.93 1.98 1.77c.15.11.54.39.55.4.43.29.87.55 1.31.81 1.97 1.12 2.63 3.78 1.5 5.72Z" style="stroke-width:0;fill:url(#linear-gradient-2)"/><path d="M1648.61 1761.04c-86.17 0-156.12 64.5-156.12 143.97s69.95 143.97 156.12 143.97 156.22-64.41 156.22-143.97-69.95-143.97-156.22-143.97m-5.03 248.31c-56.9 0-103.02-47.7-103.02-100.18 0-68.39 46.12-104.82 103.02-104.82s109.48 36.44 110.97 105.2c1.29 59.18-54.07 99.79-110.97 99.79Z" style="stroke-width:0;fill:url(#linear-gradient-3)"/><circle cx="1643.56" cy="1909.56" r="57.09" class="cls-24"/><path d="M925.4 889.58c-21.95-37.99-42.22-74.12-67.95-110.2 18.37 38.9 40.87 76.98 67.95 110.2" style="stroke-width:0;fill:#a78a6c"/><path d="M1022.11 901.3c-77.17-23.24-108.71-118.61-146.9-187.35 12.64 0 16.18-13.63 23.74-17.95-21.69-7.22-46.93-25.17-62.25-26.96 0 0 .16 40.99 9.79 85.92 3.48 8.15 7.14 16.3 10.97 24.42 25.73 36.08 45.99 72.22 67.95 110.2 31.31 38.43 68.73 70.36 112.99 89.47.88.13 1.75.26 2.64.37 10.01 1.27 20.13-.12 30.2-3.49-40-10.62-70.95-35.5-49.13-74.63" class="cls-23"/><path d="M925.4 889.58c.57.98 1.13 1.96 1.7 2.95zc-27.08-33.23-49.58-71.31-67.95-110.2-.76-1.06-1.51-2.13-2.27-3.19.77 1.06 1.51 2.13 2.27 3.19-3.83-8.12-7.5-16.27-10.97-24.42 4.17 19.43 10.1 39.6 18.57 57.51 27.78 58.76 78.46 152.98 173.34 166.59-44.26-19.11-81.68-51.05-112.99-89.47Z" style="stroke-width:0;fill:#d7c8a5"/><path d="M1038.11 509.75c-3.33-4.4-6.43-8.99-9.23-13.83-13.7 18.55-56.68 68.19-144.82 102.21 0 0 8.44 2.07 20.75 5.63 52.5-15.82 99.28-48.92 133.3-94.01" class="cls-24"/><path d="M981.42 879.88c.26.21.52.42.79.63.13-.2.26-.41.39-.6-.39 0-.78-.02-1.18-.03" class="cls-98"/><path d="M1225.37 702.15c-4.23-2.12-4.23-10.58-2.12-14.81 5.32-7.99 14-14.29 23.39-15.23-.44-1.38-.96-2.47-1.58-3.13-8.38-8.96-25.46 24.56-56.08 29.4-30.62 4.83-51.25-5.8-75.42-9.35-24.17-3.54-37.17 16.44-40.18 27.07 0 0-1.5-31.91 0-54.79s65.32-52.22 94-57.7l28.69-5.48s-1.45-.64-4.07-1.84c-56.68-17.34-118.98-40.44-153.88-86.55-34.02 45.09-80.8 78.18-133.3 94.01 25.1 7.25 66.37 20.71 85.62 35.63 26.7 20.7 27.15 53.4 24.22 74.72.23-.07.42-.08.65-.16-.23.08-.42.09-.65.16-.22 1.58-.45 3.12-.69 4.57 0 0-.45-1.62-1.32-4.07-21.72 5.07-24.02-22.04-37.48-26.32-18.18 3.22-40.16 10.45-60.15 10.72-4.95.07-10.39-1.13-16.07-3.02-7.56 4.33-11.1 17.95-23.74 17.95 30.66 55.2 57.06 127.53 106.22 165.93.39 0 .78.02 1.18.03 27.27-39.82 93.61-32.75 124.31 2.04-12.69-8.46-29.61-10.58-42.31-6.35-27.33 7.81-54.67 4.81-82 4.3l-.39.6c11.86 9.13 25.02 16.31 39.9 20.79.65-1.16 1.22-2.29 1.96-3.48-.74 1.18-1.31 2.32-1.96 3.48 9.63 2.9 19.96 4.68 31.1 5.15 6.07-1.1 12.06-2.53 17.74-3.34-16.82 13.09-36.95 16.26-56 21.2-1.08 26.05 24.79 43.27 56.29 51.63 74.55-24.92 146.82-161.71 159.32-189.25 9.3-20.5 16.24-60.88 17.56-88.78-4.9 6.98-11.81 10.13-22.74 4.24Zm-141.91 107.83c-3.39 15.2-25.59 25.85-39.74 26.71-9.55.59-18.78-2.28-26.9-7.2-3.97-2.4-7.66-5.25-11.14-8.31-2.49-2.19-8.99-6.67-9.95-9.88.28.92.67 1.9 1.19 2.95-.52-1.05-.92-2.03-1.19-2.95-1.96-6.53 1.98-10.01 7.54-11.86 16.92-8.46 27.5 14.81 44.42 8.46 7.18-2.69 13.67-6.57 20.4-10.16 2.02-1.08 4.29-1.89 6.56-1.6 6 .75 10.06 8.29 8.82 13.84Z" class="cls-98"/><path d="M1246.64 672.1c-9.39.95-18.06 7.25-23.39 15.23-2.12 4.23-2.12 12.69 2.12 14.81 10.93 5.88 17.84 2.73 22.74-4.24.54-11.48.12-20.8-1.47-25.8" class="cls-23"/><path d="M1192 596.29c-7.7-3.52-25.52-11.83-46.21-22.66-27.72-14.5-77.68-40.29-111.84-85.09 0 0-1.62 2.73-5.06 7.37 2.8 4.83 5.9 9.43 9.23 13.83 1.08-1.43 2.16-2.87 3.22-4.33-1.06 1.46-2.14 2.89-3.22 4.33 34.9 46.11 97.21 69.21 153.88 86.55" style="stroke-width:0;fill:#d1c480"/><path d="M1012.64 714.61c-3.13-8.79-11.98-28.85-27.36-27.7-3.18.24-6.6.76-10.11 1.38 13.45 4.28 15.76 31.39 37.48 26.32Z" style="stroke-width:0;fill:#c8af68"/><circle cx="1635.46" cy="722.46" r="80.58" style="stroke-width:0;fill:url(#linear-gradient-4)"/><circle cx="1635.46" cy="717.31" r="48.34" style="stroke-width:0;fill:url(#radial-gradient)"/><circle cx="446.77" cy="719.4" r="64.3" style="stroke-width:0;fill:url(#linear-gradient-5)"/><circle cx="1039.99" cy="224.05" r="26.47" class="cls-24"/><path d="M1039.98 157.62c-41.93 0-75.94 34.01-75.94 75.96s34.02 75.94 75.94 75.94 75.96-34.02 75.96-75.94-34.02-75.96-75.96-75.96m0 129.16c-29.38 0-53.2-23.82-53.2-53.2s23.82-53.2 53.2-53.2 53.2 23.82 53.2 53.2-23.82 53.2-53.2 53.2" style="stroke-width:0;fill:url(#linear-gradient-6)"/><path d="M927.82 217.54v-16.65c0-2.89-2.43-5.16-5.31-4.96-19.82 1.37-89.92 8.96-122.32 48.79 0 0 81.03-23.31 122.47-22.27 2.81.07 5.17-2.09 5.17-4.9Z" class="cls-49"/><path d="M1149.57 217.54v-16.65c0-2.89 2.43-5.16 5.31-4.96 19.82 1.37 89.92 8.96 122.32 48.79 0 0-81.03-23.31-122.47-22.27-2.81.07-5.17-2.09-5.17-4.9Z" style="stroke-width:0;fill:#fbfbfb"/><path d="M899.78 256.64s-47.62 2.42-73.73 28.28c-16.14 15.99-20.73 41.76-21.88 59.12 26.83-24.47 60.32-41.34 94.62-53.88 2.32-18.7.99-33.52.99-33.52" style="stroke-width:0;fill:#fbefad"/><path d="M898.8 290.16c-34.3 12.54-67.8 29.41-94.62 53.88q-.135 2.04-.21 3.93c28.46-18.66 60.26-32.07 92.41-43.62 1.07-4.85 1.86-9.64 2.42-14.19" style="stroke-width:0;fill:#907234"/><path d="M803.96 347.97c-.36 8.58.09 14.31.09 14.31 62.55 14.62 84.72-23.48 92.32-57.93-32.16 11.55-63.95 24.95-92.41 43.62" style="stroke-width:0;fill:#f8db82"/><path d="M702.88 205.04c1.55 2.1 2.99 4.24 4.38 6.4q-2.175-6.42-4.38-12.75c-3.07 15.33-6.12 29.56-8.38 44.27.16 1.27.33 2.53.54 3.77 6.77 41.34 28.04 67.44 28.04 67.44s2.13-2.01 5.3-5.57c-1.02-33.22-10.56-65.96-21.11-97.17-1.39-2.16-2.84-4.3-4.38-6.4Z" style="stroke-width:0;fill:#e4b653"/><path d="M755.95 244.72c-2.18-36.42-27.07-83.08-48.59-99.03 0 0-17.97 56.18-12.87 97.28 2.26-14.72 5.32-28.94 8.38-44.27q2.205 6.33 4.38 12.75c17.78 27.71 23.04 60.63 24.59 93.1 10.23-12.42 25.57-35.35 24.11-59.83" style="stroke-width:0;fill:#f9f7ee"/><path d="M728.37 308.6c1.05-1.18 2.23-2.55 3.47-4.06-1.55-32.47-6.81-65.4-24.59-93.1 10.56 31.2 20.09 63.94 21.11 97.17Z" style="stroke-width:0;fill:#ad9c6c"/><path d="M717.43 381.25c-.13.45-.27.88-.39 1.34-14.5 52.94-18.61 83.16-18.61 83.16s49.8-40.37 65.51-78.08c5.05-12.11 8.04-25.47 9.79-38.03-20.79 5.9-40.48 16.85-56.29 31.61Z" style="stroke-width:0;fill:#b69245"/><path d="M775.53 300.15s-43.23 29-58.11 81.1c15.82-14.77 35.5-25.71 56.29-31.61 3.7-26.53 1.81-49.48 1.81-49.48Z" style="stroke-width:0;fill:#fffbd2"/><path d="M649.46 329.13c.18.24.36.46.53.71-.17-.25-.36-.47-.53-.71-1.22-1.19-2.43-2.39-3.7-3.52 11.43 25.72 26.71 49.51 39.34 74.63 1.11-8.41 1.97-16.86 2.29-25.34-13.19-15.41-23.98-32.21-37.93-45.76Z" style="stroke-width:0;fill:#af8a50"/><path d="M619.77 320.94c1.9 13.45 4.87 28 9.51 42.07 15.23 46.17 52.45 62.12 52.46 62.13-.87-.38 1.51-11.85 1.69-13.04.59-3.94 1.16-7.89 1.68-11.85-12.63-25.12-27.91-48.91-39.34-74.63 1.27 1.13 2.48 2.34 3.7 3.52-8.55-11.59-20.38-13.04-29.69-8.2Z" style="stroke-width:0;fill:url(#linear-gradient-7)"/><path d="M682.6 334.55c-5.33-12.25-13.43-23.33-22.11-33.4-12.05-13.97-26.66-28.26-43.78-35.8 0 0-1.28 24.9 3.06 55.59 9.32-4.84 21.15-3.39 29.69 8.2 13.95 13.55 24.74 30.35 37.93 45.76.03-.89.08-1.78.1-2.67.29-12.31.11-26.21-4.89-37.68" style="stroke-width:0;fill:#fdfdfb"/><path d="M574 442.04c17.72 17.43 37.63 33.76 56.23 50.74 7.59 1.69 13.98 2.77 18.2 3.4-22.99-21.14-46.84-39.52-74.43-54.14" class="cls-69"/><path d="M573.84 441.96c.05.03.1.06.16.09-.75-.74-1.53-1.46-2.27-2.2 6.35-2.12 6.35 6.35 10.58 6.35-4.23 0-4.23-8.46-10.58-6.35.74.74 1.52 1.46 2.27 2.2 27.59 14.63 51.44 33 74.43 54.14 3.48.52 5.51.74 5.51.74-27.07-100.56-126.67-83.4-126.67-83.4 4.35 25.14 14.5 39.4 47.86 58.98 17.85 10.48 39.14 16.73 55.09 20.28-18.6-16.99-38.51-33.32-56.23-50.74-.05-.03-.1-.06-.16-.09Z" style="stroke-width:0;fill:url(#linear-gradient-8)"/><path d="M650.08 533.92c3.26-2.17 5.07-3.63 5.07-3.63s-14.8-17.57-45.78-23.52c-14.13 14.33-32.23 23.14-50.34 30.39 29.59-2.57 61.52 1.1 91.05-3.23Z" class="cls-69"/><path d="M559.03 537.15c18.11-7.24 36.21-16.06 50.34-30.39-1.7-.33-3.43-.64-5.23-.89-34.57-4.83-82.43 24.41-82.43 24.41s26.11 18.37 64.3 21.76c29 2.57 53.8-11.29 64.07-18.12-29.53 4.33-61.46.66-91.05 3.23" style="stroke-width:0;fill:#e5bf78"/><path d="M646.2 594.34s53.67.48 91.01-4.83c37.35-5.32 59.1-13.3 74.09-23.21 0 0-41.34 1.45-73-6.04-31.67-7.49-43.51-32.38-38.44-31.42 5.08.96 87.27 21.51 144.56 10.39s137.79-60.92 149.88-70.1 8.7-5.32 6.53 0-33.94 43.3-119.26 85.42c-75.9 37.47-133.6 58.65-189.2 60.1s-52.21-21.51-46.17-20.31" style="stroke-width:0;fill:url(#linear-gradient-9)"/><path d="M1338.05 560.26c31.67-7.49 43.51-32.38 38.44-31.42-5.08.96-85.02 19.57-142.31 8.45-16.59-3.22-35.3-9.56-53.83-17.11 26.35 23.68 57.47 37.46 90.07 46.21 12.14.11 42.81-.27 67.63-6.14Z" style="stroke-width:0;fill:url(#linear-gradient-10)"/><path d="M1430.16 594.34s-53.67.48-91.01-4.84c-37.35-5.32-59.1-13.29-74.09-23.21 0 0 2.02.07 5.37.1-32.6-8.76-63.72-22.54-90.07-46.21-45.45-18.53-89.71-44.53-98.3-51.06-12.09-9.19-8.7-5.32-6.53 0 2.18 5.32 33.94 43.31 119.26 85.42 75.9 37.47 133.6 58.65 189.2 60.1s52.21-21.51 46.17-20.3" style="stroke-width:0;fill:url(#linear-gradient-11)"/><path d="M735.16 490.88s-4.83-14.02 22.72-11.36c27.56 2.66 68.41-3.38 110.23-15.71s133.2-56.32 138.03-59.22 6.77-1.21 0 9.43-60.43 55.12-118.45 75.18-129.09 22.48-152.53 1.69Z" style="stroke-width:0;fill:url(#linear-gradient-12)"/><path d="M772.39 446.89s66.96-38.44 110.96-56.32c44-17.89 76.63-29.25 93.31-32.39s33.12-.48 33.6 2.18-76.87 52.94-118.21 69.86-81.22 21.51-119.66 16.68Z" style="stroke-width:0;fill:url(#linear-gradient-13)"/><path d="M1061.18 362.84s89.68 46.9 122.56 63.82 96.94 32.63 130.78 7.98c0 0-51.01-10.39-69.38-22.24-18.37-11.84-143.35-69.62-183.96-49.56" style="stroke-width:0;fill:url(#linear-gradient-14)"/><path d="M1056.1 403.03s86.54 85.27 181.54 100.02 119.66-23.69 119.66-23.69-78.64.34-117.24-9.67c-52.21-13.54-135.13-62.25-183.96-66.66" style="stroke-width:0;fill:url(#linear-gradient-15)"/><path d="M1279.61 328.53c.16 0 .26-.01.26-.01s1.93-10.96-20.31-39.97-75.42-38.03-75.42-38.03-9.67 41.26 28.69 60.55c15.35 7.72 29.15 12.05 40.19 14.48-15.71-12.13-32.72-22.73-48.8-33.78 27.41 5.48 54.8 17.29 75.39 36.76" style="stroke-width:0;fill:#fdfcda"/><path d="M1279.61 328.53c-20.59-19.47-47.98-31.28-75.39-36.76 16.07 11.05 33.08 21.64 48.8 33.78 15.05 3.3 24.94 3.06 26.59 2.99Z" style="stroke-width:0;fill:#e6c76f"/><path d="M901.8 102.9s-26.11 26.43-33.2 60.27c0 0-52.86 21.27-78.32 42.22 0 0-10.96-32.55-25.46-48.99 0 0 50.35-9.98 71.23-16.93 27.02-9 65.75-36.57 65.75-36.57" style="stroke-width:0;fill:url(#linear-gradient-16)"/><path d="M1179.15 101.61s28.2 32.71 35.29 66.56c0 0 55.12 5.48 80.58 26.43 0 0 6.61-23.05 21.11-39.48 0 0-50.35-9.98-71.23-16.93-27.02-9-65.75-36.57-65.75-36.57Z" style="stroke-width:0;fill:#fcffe7"/><path d="M1475.03 628.59h292.01l-15.47-30.46h-268.8z" class="cls-24"/><path d="M313.79 628.59h292.02l-15.47-30.46H321.53z" style="stroke-width:0;fill:#d3be7b"/><path d="M1487.67 446.19c-23.47 7.82-39.71 26.49-58.74 42.63.08 1.27.17 1.98.17 1.98 3.8-.4 7.43-.89 10.98-1.42 14.32-15.94 30.95-29.57 47.6-43.19Z" style="stroke-width:0;fill:#b18928"/><path d="M1431.02 467.25c-2.42 9.72-2.31 17.96-2.09 21.58 19.03-16.15 35.27-34.81 58.74-42.63-16.64 13.62-33.28 27.25-47.6 43.19 6.2-.92 12.07-2.01 17.57-3.27 16.12-13.81 29.73-31.16 44.84-46.27-26.86 0-50.67 12.14-71.46 27.4" style="stroke-width:0;fill:#f0c560"/><path d="M1475.03 421.18c-29.03 9.86-40 29.97-44.01 46.06 20.79-15.27 44.61-27.4 71.46-27.4-15.11 15.11-28.72 32.46-44.84 46.27 63.06-14.44 80.64-49.14 83.62-60.98 3.38-13.46-13.54-21.84-66.24-3.95Z" style="stroke-width:0;fill:#fffeff"/><path d="M1456.41 508.56c-5.51 1.82-10.59 3.95-14.94 6.01 16.06 4.99 31.89 9.39 46.2 18.34-8.19-10.92-19.12-18.69-31.27-24.35Z" style="stroke-width:0;fill:#64520c"/><path d="M1441.47 514.58c-8.95 4.24-14.79 8.13-14.79 8.13s35.78 26.9 63.33 29.64c3.18.32 6.35.29 9.47.01-3.63-7.08-7.5-13.93-12.37-19.77-14.17-8.72-29.79-13.09-45.64-18.02Z" style="stroke-width:0;fill:#f1dc96"/><path d="M1495.18 505.39c-12.86-3.21-26.82-.77-38.77 3.17 12.15 5.67 23.08 13.44 31.27 24.35-.18-.12-.37-.21-.56-.32 4.87 5.84 8.74 12.69 12.37 19.77 23.97-2.11 45.16-19.51 45.16-19.51s-18.46-19.73-49.47-27.47Z" style="stroke-width:0;fill:#fefff9"/><path d="M1358.64 397.53c-1.19-8.35-.37-16.03.58-23.79-2.51-9.4-6.15-17.94-14.24-28.51-18.86-24.62-32.39-37.67-32.39-37.67s-.97 40.61 7.74 72.52c5.47 20.07 20.89 37.84 35.67 53.32-12.63-25.26-22.84-51.71-31.2-78.18 10.58 14.81 23.27 27.5 33.85 42.31Z" style="stroke-width:0;fill:#f4dda1"/><path d="M1371.08 422.63c-7.18-22.35-8.53-36.38-11.87-48.89-.95 7.76-1.77 15.44-.58 23.79-10.58-14.81-23.27-27.5-33.85-42.31 8.36 26.46 18.57 52.92 31.2 78.18 8.72 9.13 17.22 17.47 23.32 25 16.44 20.31 27.56 31.91 28.52 24.66 0 0-24.17-21.27-36.74-60.43" style="stroke-width:0;fill:#aa8e6a"/><path d="M1393.43 390.23c1.84 23.01 5.34 42.12 5.7 45.45.64 5.96 4 43.32 5.64 46.41s.64-3.87.64-3.87-3.06-38.52.48-48.83c.93-2.7 3.79-6.89 7.68-12.46 2.05-20.7 5.08-41.63 6.42-61.71-7.67 12.27-18.67 22.34-26.56 35Z" style="stroke-width:0;fill:#a87832"/><path d="M1455.05 256s-53.99 39.48-60.59 78.48c-1.7 10.01-2.23 21.15-2.12 32.28 11.08-16.78 24.53-30.61 40.34-43.26-4.87 27.57-9.72 55.14-11.73 82.71 10.78-16.09 24.25-39 30.07-67.7 9.83-48.51 4.03-82.51 4.03-82.51" style="stroke-width:0;fill:#f9ffff"/><path d="M1392.33 366.76c.08 7.97.49 15.93 1.09 23.47 7.89-12.67 18.89-22.73 26.56-35-1.34 20.08-4.37 41.01-6.42 61.71 2.19-3.13 4.7-6.73 7.38-10.73 2.01-27.57 6.86-55.14 11.73-82.71-15.81 12.65-29.26 26.48-40.34 43.26" style="stroke-width:0;fill:#ebc06d"/><path d="M1325.88 272.82c4.59 12.58 12.38 21.25 19.06 26.78 2.18-27.79 10.08-54.83 11.58-81.87-9.63 19.26-21.68 36.09-30.64 55.09" style="stroke-width:0;fill:#bf9540"/><path d="M1352.4 225.59c1.41-2.58 2.8-5.19 4.13-7.86-1.5 27.04-9.4 54.07-11.58 81.87 6.75 5.58 12.36 7.97 12.36 7.97s6.46-7.98 12.44-24.11c-6.47-21.99-11.9-44.09-13.22-67.84-1.27 3.39-2.67 6.7-4.13 9.97" style="stroke-width:0;fill:#fff9bf"/><path d="M1365.44 139.47s-37.71 51.42-43.03 101.22c-1.37 12.78.28 23.4 3.47 32.13 7.72-16.38 17.73-31.14 26.51-47.23 1.46-3.27 2.86-6.58 4.13-9.97 6.31 20.5 11.43 40.99 15.39 61.49 8.62-27.2 14.26-72.79-6.47-137.64" class="cls-71"/><path d="M1369.74 283.45c.74-1.99 1.46-4.11 2.17-6.35-3.96-20.5-9.08-40.99-15.39-61.49 1.32 23.75 6.75 45.84 13.22 67.84" class="cls-71"/><path d="M1201.23 320.14s24.98 4.83 46.57 12.25c21.59 7.41 30.54 16.6 32.11 36.26 0 0-22.44-.48-48.71-6.77s-31.83-26.58-29.98-41.74Z" style="stroke-width:0;fill:#edd689"/><path d="M678.03 491.28s-.32-24.66 15.55-48.59c0 0-6.85 28.77-15.55 48.59" class="cls-24"/><circle cx="446.77" cy="719.4" r="34.97" style="stroke-width:0;fill:#7095c3"/><path d="M774.12 644.53c-25.45 7.85-74.66 11.68-93.75 16.45-19.34 4.83-40.93 28.69-46.74 55.44-4.16 19.2-11.59 34.06-18.11 44.39 59.75-27.42 113.95-68.19 158.59-116.28Z" style="stroke-width:0;fill:#fefdf8"/><path d="M841.2 599.74s-40.93 36.42-66.07 44.48c-.33.11-.68.21-1.01.31-44.64 48.09-98.85 88.86-158.59 116.28-2.57 4.06-5 7.44-7.03 10.08-7.2 9.35 36.1 0 61.56-14.5s57.37-48.02 68.33-56.08 61.56-38.03 84.45-65.75c22.88-27.72 27.07-38.03 18.37-34.81Z" class="cls-31"/><path d="M1396.71 704.26c-35.96-29.61-90.96-31.73-116.34-76.15-1.03-1.94-2.07-3.86-3.12-5.79-14.57-11.27-27-22.01-33.88-23.15 0 0 13.54 36.96 51.97 62.35 38.44 25.38 61.93 44.48 96.96 76.39 15.35 13.98 33.96 23 49.98 28.45-9.42-24.88-24.6-46.38-45.56-62.1Z" class="cls-24"/><path d="M1453.19 725.82c-3.38-17.89-11.6-52.46-29.01-60.43-17.4-7.98-86.06-8.7-113.37-21.27-11.45-5.27-23.06-13.67-33.56-21.79q1.575 2.88 3.12 5.79c25.38 44.42 80.38 46.54 116.34 76.15 20.96 15.72 36.14 37.22 45.56 62.1 20.53 6.99 36.82 8.12 36.54 6.36-.48-3.14-22.24-29.01-25.62-46.9ZM1129.35 671.67s18.37 22 37.95 13.05c19.58-8.94 20.55-23.21 20.55-23.21s-22.24 19.58-58.5 10.15ZM956.27 671.67s-18.37 22-37.95 13.05c-19.58-8.94-20.55-23.21-20.55-23.21s22.24 19.58 58.5 10.15Z" class="cls-98"/><path d="M592.49 926.98c-33.45 12.74-66.15 22.17-96.61 32.25-30.41 10.04-58.88 20.84-83.63 34.42-24.78 13.65-46.3 30.05-62.8 48.5-16.53 18.37-27.99 38.92-33.56 59.19-5.81 20.32-6.37 40.25-4.28 57.4 1.96 17.26 6.69 31.83 11.63 43.25 4.85 11.54 10.39 19.67 13.96 25.32 3.98 5.38 6.07 8.21 6.07 8.21l-7.47-7.06c-4.51-4.98-11.52-12.28-18.39-23.37-6.94-10.99-14.23-25.53-18.93-43.82-4.78-18.19-7.15-40.24-3.23-64.42 3.71-24.25 14.56-49.77 31.75-72.86 17.13-23.16 40.22-43.81 67.01-60.95 26.98-17.19 57.24-30.37 88.49-41.94 31.26-11.57 63.5-21.57 94.88-33.55 62.98-23.76 103.84-51.52 129.55-76.6 25.86-25.24 37.94-46.23 46.08-59.99 7.76-14.03 11.78-21.41 15.17-24.82 3.41-3.43 6.15-2.91 9-2.3s5.59 1.11 7 6.08c1.41 4.96 1.63 14.6-3.66 32.67-5.66 17.69-17.2 44.48-45.72 75.52-14.29 15.4-32.97 31.5-56.63 46.69-23.64 15.26-52.3 29.42-85.68 42.19Z" style="stroke-width:0;fill:#d3c165"/><path d="M567.92 1028.2c-37.74 12.05-71.89 22.74-98.83 38.98-27.14 15.84-47.02 36.77-56.74 58.21-10.01 21.63-10.7 42.52-8.3 56.3 1.07 7 2.94 12.3 4.22 15.91 1.48 3.56 2.26 5.43 2.26 5.43l-3.84-4.54c-2.33-3.12-5.81-7.87-8.94-14.83-6.44-13.62-11.95-36.81-5.44-64.94 3.19-14.03 9.79-28.81 19.4-42.72 9.67-13.92 22.41-26.95 37.32-38.29 29.97-23.09 68.18-37.64 105.87-49.7 37.8-12.05 72.55-22.79 100.28-39.25 6.68-3.96 14.21-8.99 20.83-13.3 6.65-4.53 13.09-8.93 18.97-13.52 11.93-9.03 22.12-18.68 31.12-28.22 17.94-19.15 30.85-37.31 39.98-49.67 9-12.56 14.05-19.6 14.05-19.6s-2.62 8.27-8.26 22.76c-5.78 14.43-14.07 35.37-29.02 59.36-7.49 11.93-16.84 24.66-28.46 36.74-5.73 6.13-12.02 11.95-18.53 17.8-6.74 5.81-12.91 11.21-20.76 17.19-30.82 23.31-69.54 37.85-107.17 49.88Z" style="stroke-width:0;fill:url(#linear-gradient-17)"/><path d="M632.05 1051.46c19.26-7.95 37.38-14.91 53.65-22.77 16.23-7.82 30.32-16.76 43.06-27.18 25.3-20.77 43.83-45.46 55.9-68.22 12.42-22.73 18.36-43.54 21.78-58.08 1.71-7.31 2.68-13.1 3.18-17.06.63-3.97.96-6.06.96-6.06s.3 2.09.86 6.06c.64 4 1.33 9.92 1.57 17.65.46 15.35-.32 38.36-8.83 65.53-8.18 27.11-24.16 58.49-51.28 86.38-13.44 13.84-30.22 26.67-48.46 36.78-18.18 10.15-38.78 13.9-57.57 21.67-37.41 15.33-58.44 21.97-70.39 34.88-6.4 6.45-13.93 23.92-16.07 28.22-2.29 4.64-3.12 8.25-3.55 11.24-.77 5.93-.03 10.12-.73 13.3-.54 3.16-2.4 5.24-4.5 7.27-2.1 2.02-3.96 4.12-7.94 3.48-1.96-.37-4.51-1.47-7.48-4.24-2.92-2.76-6.4-7.29-8.73-14.44-2.3-7.08-3.08-16.75-.38-27.44 2.88-10.97 8.27-21.32 17.07-32.32 4.41-5.43 9.69-10.83 16.02-15.98 6.64-5.29 13.03-9.47 20.47-13.94 14.7-8.86 32.14-16.8 51.36-24.73Z" style="stroke-width:0;fill:url(#linear-gradient-18)"/><path d="M697.98 1136.61c16.6-8.05 31.87-17.64 45.55-28.38 13.75-10.9 26.56-22.68 37.81-34.47 22.63-23.67 39.22-48.55 51.01-70.82 11.83-22.29 18.85-41.91 23.45-55.55 2.3-6.84 3.9-12.23 4.95-15.9 1.1-3.67 1.68-5.59 1.68-5.59s-.12 2.01-.33 5.83c-.19 3.83-.58 9.48-1.46 16.73-1.76 14.47-5.02 35.63-13.75 60.77-8.66 25.06-23.02 54.19-45.35 82.05a314 314 0 0 1-38.71 40.34c-14.94 12.92-32.2 24.38-51.05 33.52-18.87 9.15-36.31 14.78-51.65 18.64-15.38 3.82-28.72 6.05-40.16 7.22-22.9 2.41-38.15 1.93-48.24.88-20.18-2.32-20.04-6.48-20.06-10.79-.03-4.43.08-8.21 19.23-11.59 9.55-1.79 23.87-3.62 44.86-7.38 20.83-4.02 48.85-9.59 82.24-25.49Z" class="cls-24"/><path d="M313.97 909.89c-57.6 46.03-90.18 111.44-90.96 181.83-1.29 116.03 82.51 189.52 163.09 162.45 0 0-70.26-1.93-115.39-85.41-45.12-83.48 18.05-211.92 119.26-248.5 37.69-13.63 85.83-26.22 133.43-41.03-46.95 2.73-94.5 2.44-142.05 9.07-24.14 2.94-46.47 10.65-67.37 21.6Z" style="stroke-width:0;fill:#cba561"/><path d="M707.04 770.06s-107.57 54.15-251.32 78.64c-56.54 9.64-104.4 31.34-141.75 61.19 20.9-10.94 43.23-18.65 67.37-21.6 47.55-6.64 95.1-6.34 142.05-9.07 80.21-24.95 158.92-56.17 183.64-109.17Z" style="stroke-width:0;fill:#fbffff"/><path d="M1460.98 1085.28c-21.13-6.11-43.59-12.85-63.51-23.98-19.81-10.85-36.87-24.41-51.19-38.88-28.67-29.16-46.09-61.74-56.82-89.57-10.69-28.04-15.24-51.68-17.8-67.93-2.42-16.3-2.93-25.36-2.93-25.36s2.48 8.76 7.74 24.17c5.38 15.34 13.68 37.41 27.37 62.46 13.73 24.93 33.22 52.79 60.79 76.79 13.78 11.92 29.45 22.82 46.86 31.44 17.22 8.73 36.8 14.22 58.36 20.45 21.49 6.14 41.43 12.87 57.86 22.05 16.54 9.1 29.46 20.23 38.29 32.3 8.79 12.01 12.95 23.93 15.04 33.66 2.08 9.82 2.11 17.72 1.68 23.86-1.03 12.31-3.67 17.93-5.81 20.6-2.2 2.65-4.26 2.33-6.43 2.04-2.17-.28-4.23-.59-5.82-3.45-1.63-2.83-2.54-8.27-4.31-18.2-2.03-9.69-4.49-24.72-17.43-40.65-6.48-7.72-16.38-15.85-29.89-22.82-13.57-7.14-30.77-12.91-52.05-18.98M1485.02 1326.4c14.77 7.42 31.95 9.01 46.75 6.16 14.9-2.72 27.38-10.3 36.43-18.88 9.08-8.56 14.73-17.77 17.92-24.49 3.21-6.76 4.42-10.95 4.42-10.95s.07 1.07.2 3.11c.13 2.05.17 5.1-.2 9.04-.67 7.84-3.12 19.56-10.83 32.38-7.51 12.63-21.25 26.56-41.1 33.58-19.43 7.07-44.31 7.49-66.74-3.72-11.2-5.56-19.9-13.55-25.54-21.47-5.66-7.99-8.63-15.64-10.39-22.09-3.35-13.02-2.53-21.6-1.51-27.21 1.03-5.62 2.84-8.38 4.03-9.79 1.26-1.4 2.17-1.45 2.17-1.45s.91-.06 2.4 1.1c1.55 1.14 3.4 3.57 5.94 8.16 2.49 4.56 5.33 11.53 10.09 20.34 4.96 8.76 11.42 18.86 25.96 26.19Z" class="cls-24"/><path d="M1581.72 1048.01c-21-11.5-42.7-21.23-63.99-29.95-20.81-8.47-43.58-16.37-63.64-26.85-40.59-20.31-71.83-48.78-92.14-75.74-20.48-27.09-31.86-51.64-39.49-68.42-3.76-8.45-6.49-15.06-8.25-19.59l-2.73-6.88s1.4 2.13 4.07 6.18c2.62 4.08 6.55 10.04 11.72 17.61 10.39 15.03 25.49 36.95 47.96 59.54 22.45 22.56 52.98 44.63 91.45 60.4 19.12 8.21 39.87 13.97 63.12 22.3 22.7 8.24 45.92 17.99 68.81 30.52 22.91 12.55 41.98 25.88 57.21 40.72 15.88 15.44 24.88 33.16 29.44 48.28 4.52 15.29 5.39 28.21 5.32 38.67-.08 10.49-1.27 18.65-2.52 25.08-2.58 12.84-5.57 18.85-7.46 21.83-1.93 2.96-3.03 2.83-3.03 2.83s-1.09-.12-2.45-3.36c-1.39-3.22-2.82-9.62-4.66-21.75-.96-6.05-1.99-13.54-3.86-22.5-1.84-8.94-4.42-19.42-9.28-30.69-4.97-11.19-12.35-23.06-24.58-33.82-12.8-11.29-30.07-22.94-51.03-34.38Z" style="stroke-width:0;fill:url(#linear-gradient-19)"/><path d="M1777.62 992.73c-20.53-23.27-44.7-42.93-69.89-58.98-25-16.15-51.7-28.14-77.88-37.55-52.83-18.35-105-28.08-146.87-45.65-42.25-17.89-69.28-44.33-84.27-63.87-7.7-9.78-12.54-18.11-15.9-23.63-3.09-5.69-4.72-8.68-4.72-8.68s2.09 2.67 6.06 7.75c4.19 4.9 10.17 12.26 18.97 20.58 17.24 16.76 45.93 37.88 86.36 49.99 20.08 5.91 43.58 10.39 68.68 15.11 25.2 4.77 52.61 9.61 81.45 17.85 57.49 16.28 119.19 48.51 166.62 102.06 11.78 13.47 21.44 27.48 29.49 41.31 7.51 14.18 13.87 27.97 17.47 41.79 8.05 27.38 7.71 52.76 4.61 73.22-3.43 20.52-9.5 36.34-15 48.9-5.6 12.57-10.9 21.97-15.37 29.28-18.19 28.87-22.59 26.12-27.18 23.84-4.81-2.39-8.51-4.7 2.98-35.53 2.75-7.7 6.35-17.17 10.15-28.91 3.74-11.73 7.85-25.78 9.74-42.47 1.53-16.61 1.2-36.05-5.63-57.74-3-10.91-8.43-22.05-14.67-33.72-6.85-11.43-15.01-23.27-25.22-34.95Z" style="stroke-width:0;fill:#fdffff"/><path d="M1696.35 1021.58c-26.71-21.76-55.6-38.82-85.58-52.09-30.03-13.4-60.93-23.75-90.55-34.41-29.67-10.58-58.17-21.61-83.81-34.62-25.69-12.93-48.39-27.92-66.84-44.48-18.66-16.88-31.43-35.3-41.06-52.07-9.5-16.9-15.46-32.5-19.15-45.48-3.66-13.01-5.05-23.4-5.62-30.41-.42-7.04-.41-10.7-.41-10.7s.58 3.66 2.02 10.46c1.58 6.78 4.4 16.66 9.6 28.67 5.23 11.98 12.83 26.11 23.68 40.97 10.91 14.72 24.89 30.58 42.98 43.86 18.35 13.41 40.57 25.38 65.64 35.57 25.08 10.3 52.97 18.95 82.94 27.76 29.95 8.92 62.09 18.02 94.89 31.44 32.85 13.33 65.78 31.98 95.21 56.01 29.58 24.04 51.8 49.08 68.83 72.92 17.1 23.97 28.4 48.01 33.84 70.2 5.52 22.14 4.9 42.46 1.57 58.09-3.44 15.8-9.09 27.71-14.88 36.34-11.81 17.3-22.08 22.03-27.02 23.52-5.3 1.29-6.65-.83-8.21-2.94s-2.93-4.21-1.16-8.51c1.52-4.46 6.74-10.74 12.84-25.02 5.63-14.04 13.02-38.08 3.03-72.41-5.11-17.14-14.74-36.59-30.21-57.48-15.54-20.93-35.91-43.54-62.56-65.17Z" class="cls-24"/><path d="M1448.03 859.96c24.13 10.16 49.56 19.62 73.28 29.39a4203 4203 0 0 1 68.6 28.48c43.25 18.3 83.93 35.91 113.95 58.17 30.32 21.88 48.71 46.75 57.66 65.08 4.58 9.18 7.14 16.68 8.64 21.78 1.43 5.14 2.01 7.84 2.01 7.84s-1.22-2.49-3.53-7.24c-2.43-4.66-6.29-11.39-12.18-19.28-11.61-15.83-32.33-35.83-62.78-52.15-30.32-16.79-70.09-29.07-115.2-44.25-22.42-7.6-45.89-15.76-70.13-24.46-24.28-8.88-49.06-17.42-75.28-28.43-26.09-11.03-48.95-24.1-66.58-39.37-18.06-15.73-29.25-32.47-37.39-46.58-15.87-28.62-22.23-48.23-26.61-61.31-8.19-26.21-3.93-28.06.83-30.34 4.71-2.24 9.13-4.26 23.61 19.15 7.37 11.48 16.5 29.98 32.03 54.19 7.9 11.93 17.67 24.94 31.52 36.4 14.32 11.79 33.39 22.69 57.57 32.92Z" style="stroke-width:0;fill:url(#linear-gradient-20)"/><path d="M921.06 2040.93s-99.27 92.18-134.73 108.62c-35.45 16.44-49.31 9.99-45.77 4.83s52.86-74.45 88.31-84.12 92.18-29.33 92.18-29.33Z" style="stroke-width:0;fill:#3b5268"/><path d="M834.35 2044.8s15.79-16.44 46.09-29.98 40.61-15.79 44.8-9.99-.97 24.5-38.36 36.1-54.15 8.7-52.54 3.87Z" style="stroke-width:0;fill:#2a3a4d"/><path d="M755.39 2014.5s38.68-41.9 73.16-59.63c34.49-17.73 58.66-10.31 50.28 7.41s-51.25 45.12-123.45 52.21Z" style="fill:#ccb16f;stroke-width:0"/><path d="M586.17 1992.27s9.67-16.12 31.26-14.83 46.09 4.51 84.45 2.9 59.31-5.8 59.31-5.8-14.18 39-83.48 47.7-97.02-29.33-91.54-29.98Z" style="stroke-width:0;fill:#e3bd6d"/><path d="M785.04 1957.78s-11.28-33.52-42.22-41.9-57.37 0-57.37 0 16.76 21.59 46.74 36.1c29.98 14.5 52.86 5.8 52.86 5.8Z" style="stroke-width:0;fill:#f6d881"/><path d="M800.21 1944.01c-.71-.31-1.38-.68-2.01-1.09-5.91-3.82-10.94-9.01-16.89-12.93-6.23-4.11-12.93-7.53-20.12-9.6-21.27-6.12-23.74-5.8-23.74-5.8s28.89-7.09 52.1 1.29c23.2 8.38 31.58 15.79 32.55 17.4 1.45 2.42-.93 6.32-2.58 7.91-4.84 4.68-13.23 5.54-19.32 2.82Z" style="stroke-width:0;fill:#c3ae81"/><path d="M559.42 2022.24s49.64 35.78 77.03 85.09c0 0-54.79-6.45-101.53-28.69s-10.96-53.83 24.5-56.4" style="stroke-width:0;fill:#e4bf80"/><path d="M544.6 1996.13s-65.75-56.73-105.72-62.85-76.07 19.34-76.07 19.34 25.14 33.85 84.45 46.42 97.34-2.9 97.34-2.9Z" style="stroke-width:0;fill:#bc9a61"/><path d="M567.8 1979.61s-69.94-64.06-128.92-74.05-70.26-7.09-70.26-7.09 10.31-14.18 52.21-16.44 105.72 12.41 146.97 97.58" style="stroke-width:0;fill:#e1ca8b"/><path d="M579.73 1963.58s-22.56-23.53-18.69-64.46 14.83-46.74 14.83-46.74 15.47 32.55 22.56 51.89-3.89 49.01-18.69 59.31Z" style="stroke-width:0;fill:#e9ca88"/><path d="M518.17 1874.3s-34.17-50.6-42.87-76.71-2.26-76.39-2.26-76.39 39.64 38.36 47.06 64.46-1.93 88.64-1.93 88.64" style="stroke-width:0;fill:#d9b178"/><path d="M461.12 1840.78s-16.76-57.05-38.36-82.51c-21.59-25.46-75.42-32.55-75.42-32.55s9.99 41.26 29.33 71.23c19.34 29.98 63.82 44.16 84.45 43.83" style="stroke-width:0;fill:url(#linear-gradient-21)"/><path d="m327.36 1785.66-43.72-84.18a16.2 16.2 0 0 0-7.45-7.21c-17.35-8.23-75.15-35.5-85.81-38.51-12.57-3.55-27.72 40.61-20.63 67.36s170.5 106.04 170.5 106.04-45.77-60.59-46.09-61.56 33.2 18.05 33.2 18.05Z" style="stroke-width:0;fill:url(#linear-gradient-22)"/><path d="M198.11 1617.42s6.77-19.34 18.69-18.05c11.93 1.29 179.85 79.29 192.74 90.57s10.96 14.83 3.87 12.89-142.78-46.74-215.3-85.41" style="stroke-width:0;fill:#f1d79f"/><path d="M258.38 1514.92c-1.93 0-26.11 40.93-26.11 40.93l59.69 28.15c6.31-16.45 12.82-32.86 19.34-49.34-29.4-11.66-52.04-19.74-52.93-19.74Z" style="stroke-width:0;fill:#dcbd82"/><path d="M357.74 1553.91c-15.93-6.93-31.99-13.52-46.43-19.25-6.52 16.48-13.03 32.9-19.34 49.34l29.87 14.09c10.85-15.68 22.62-30.58 35.9-44.18" style="stroke-width:0;fill:#fcffff"/><path d="M418.99 1583.57c-16.87-9.57-38.92-19.95-61.25-29.66-13.27 13.61-25.05 28.5-35.9 44.18l104.88 49.46c9.59-13.78 19.66-27.26 30.58-40.42-8.77-6.03-21.06-13.79-38.3-23.57Z" style="stroke-width:0;fill:#d1b779"/><path d="M478.52 1624.83s-2.83-5.04-21.23-17.69c-10.91 13.16-20.99 26.63-30.58 40.42l26.98 12.73 24.82-35.45Z" style="stroke-width:0;fill:#97733f"/><path d="M183.61 1543.93s-46.41-14.5-68.97-49.31-21.92-59.63-21.92-59.63 56.4 21.59 77.03 43.51 13.86 65.43 13.86 65.43" style="stroke-width:0;fill:url(#linear-gradient-23)"/><path d="M355.96 1398.1c0 5.94-.41 12.16-.75 18.44.76-5.82 1.04-11.95.75-18.44" class="cls-24"/><path d="M355.21 1416.54c.33-6.28.75-12.5.75-18.44.29 6.49.02 12.62-.75 18.44-.98 18.32-1.28 37.19 11.32 51.37 4.23 6.35 16.92 2.12 25.38-4.23 78.27-55 162.88-71.92 234.8-131.15 25.56-18.25 29.04-56.98 14.57-84.92-45.63-14.78-113.83-25.69-185.66 8.98-98.14 47.37-151.33 226.76-151.33 226.76l1.88.96c25.81-14.12 44.87-36.09 49.02-67.75Z" class="cls-111"/><path d="M865.13 1273.03c-80.74-25.62-147.94-37.52-147.94-37.52s15.47 17.69 20.31 28.33c4.83 10.64-19.82 15.95-56.08-.48-9.72-4.41-23.41-10.34-40.12-15.76 14.47 27.95 10.99 66.67-14.57 84.92-71.92 59.23-156.54 76.15-234.8 131.15-8.46 6.35-21.15 10.58-25.38 4.23-12.6-14.18-12.3-33.05-11.32-51.37-4.16 31.67-23.22 53.64-49.02 67.75l179.42 91.39s70.59-112.16 115.55-141.66 69.62-13.05 60.43 3.14c-9.19 16.2-33.84 55.84-33.84 55.84s9.51-2.02 27.09-3.34c28.79-64.01 96.23-97.76 160.15-119.07 73.56-23.23 147.12-42.93 219.07-67.18-57.29-.91-114-12.96-168.92-30.39Z" style="stroke-width:0;fill:#c2a970"/><path d="M1106.91 1476.37c8.46-19.04 21.15-33.85 31.73-50.77-33.85 14.81-55 52.88-90.96 57.11-29.61 4.23-57.11-16.92-80.38-33.85 21.15 35.96 52.88 90.96 6.35 116.34-10.74 6.45-21.48 7.97-32.23 6.39 42.21 36.98 66.34 74.18 66.34 74.18s14.5-51.73 10.15-93.31-28.04-79.77-28.04-79.77c23.21 21.27 55.12 56.08 55.12 56.08 20.79-34.81 47.86-53.18 47.86-53.18-32.39 61.88-24.17 132.47-24.17 132.47s25.35-25.48 60.4-61.04c-21.13-14.27-29.41-47.11-22.16-70.66Z" style="stroke-width:0;fill:url(#linear-gradient-24)"/><path d="M1411.45 1228.55s-9.67-.97-63.33 6.96-148.42 45.25-233.03 61.21c-27.05 5.1-54.1 7.13-81.03 6.7-71.94 24.25-145.5 43.95-219.07 67.18-63.92 21.31-131.37 55.05-160.15 119.07 31.08-2.34 87.49-2.52 161.87 14.46 50.24 11.47 92.68 39.41 124.71 67.48 10.74 1.57 21.48.05 32.23-6.39 46.54-25.38 14.81-80.38-6.35-116.34 23.27 16.92 50.77 38.08 80.38 33.85 35.96-4.23 57.11-42.31 90.96-57.11-10.58 16.92-23.27 31.73-31.73 50.77-7.25 23.55 1.03 56.4 22.16 70.66 61.06-61.96 151.6-154.57 189.07-196.65 58.98-66.23 93.31-121.83 93.31-121.83Z" class="cls-111"/><path d="M1236.44 910.42s8.22 99.11 78.32 167.76 135.37 64.78 190.49 89.44 54.15 72.04 44.96 100.08-53.18 45.54-83.64 41.38c0 0 53.66-22.05 54.15-61.69.48-39.64-41.9-66.33-126.45-84.12-57.85-12.17-181.04-105.4-157.83-252.85" style="stroke-width:0;fill:url(#linear-gradient-25)"/><path d="m1912.78 1409.69 24.84 29.49s-74.45 193.39-173.32 300.72l-35.53-5.8s127.74-185.65 184.01-324.41m-27.85-43.52-29.49-18.6s-165.35 311.58-214.18 375.88l43.03 2.9s168.73-268.32 200.64-360.18m-96.17-50.53s-84.73 173.19-109.39 215.74-46.81 58-73.4 114.4-41.03 77.19-34.29 87.35 35.26-23.21 50.73-52.7 157.61-262.52 200.16-352.93l-33.8-11.86Z" style="stroke-width:0;fill:url(#linear-gradient-26)"/><path d="M1769.38 1297.52s-97.18 198.71-114.1 226.75-37.71 53.18-37.71 53.18-.48-25.62 15.47-68.17 106.36-220.94 112.65-225.78c6.29-4.83 25.14-1.45 23.69 14.02" class="cls-111"/><path d="M1714.27 1281.46s-95.45 155.1-128.6 267.47c-45.93 155.68-138.27 324.89-182.75 399.34s-114.1 168.25-154.71 203.06-107.81 43.03-107.81 43.03 84.12-84.61 124.73-129.57 101.53-132.47 129.57-175.98 69.62-118.93 104.91-205.47 77.7-231.43 112.51-298.15 50.9-106.19 56.7-114.57 35.78 3.97 45.45 10.85Z" style="stroke-width:0;fill:url(#linear-gradient-27)"/><path d="M1171.01 1734.99s115.55-105 161.96-170.27 97.66-150.84 106.36-166.31 24.66 6.29 25.14 17.4-48.83 113.62-67.2 142.14-64.3 78.81-79.53 94.28-81.46 82.67-115.79 101.04-51.53.84-30.94-18.28" style="stroke-width:0;fill:url(#linear-gradient-28)"/><path d="M1145.38 1706.37s110.23-82.67 161.48-143.11c51.25-60.43 93.79-186.62 93.79-186.62s-81.01 85.62-100.78 129.6c-2.99 6.65-69.4 78.29-102.28 120.36-32.88 42.06-49.31 64.3-52.21 69.14-2.9 4.83 0 10.64 0 10.64Z" style="stroke-width:0;fill:#4d80a9"/><path d="M1082.05 1693.8s202.09-201.61 219.01-216.11 31.56-25.64 31.56-25.64l68.04-75.4 6.29-19.82-12.68-21.27s-169.59 171.15-208.75 212.24-107.81 109.75-118.93 127.64 1.45 25.14 15.47 18.37Z" style="stroke-width:0;fill:url(#linear-gradient-29)"/><path d="M973.96 1664.91c-34.85-39.82-108.4-111.95-193.96-125.81-46.92-7.6-86.18-8.97-118.17-6.77 39.74 14.81 80.58 26.03 121.42 41.34 66.81 24.69 127.64 60.35 190.7 91.23Z" style="stroke-width:0;fill:#fffff8"/><path d="M783.26 1573.67c-40.84-15.32-81.68-26.53-121.42-41.34-53.46 3.68-86.61 17.33-101.25 28.52-23.41 17.89-21.95 34.85-19.54 38.45 2.42 3.61 42.55-27.01 151.33-24.51s209.34 60.03 244.15 95.81l34.81 35.78s19.34-3.38 24.17-14.99c0 0-7.74-10.71-21.54-26.48-63.06-30.88-123.89-66.54-190.7-91.23Z" style="stroke-width:0;fill:url(#linear-gradient-30)"/><path d="M580.61 1776.32c34.08 53.5 159.42 95.4 159.42 95.4s-10.42 3.87-45.88-4.19c-35.45-8.06-95.73-37.39-126.35-96.69-30.62-59.31-25.14-127.31-25.14-127.31 41.58-27.72 107.01-55.44 214.98-26.43s163.41 125.28 163.41 125.28-15.79 1.71-24.5 0-50.28-33.74-93.15-59.85-94.76-47.38-161.16-51.25-90.89 14.5-90.89 14.5c-.97 14.5-4.83 77.03 29.24 130.54Zm302.9 15.14s-77.03-54.47-98.47-65.75-53.99-24.17-63.66-33.52-49.31-58.34-131.18-55.76c0 0 87.02 65.43 122.48 87.67 35.45 22.24 132.15 64.14 147.62 70.26s22.24 3.55 23.21-2.9m-56.73 64.79s-90.89-46.41-136.02-84.45c-45.12-38.03-93.47-100.88-94.44-102.5s18.37 44.48 41.26 74.45c22.88 29.98 102.44 88.31 163.09 117l26.11-4.51Z" style="stroke-width:0;fill:url(#linear-gradient-31)"/><path d="M1924.41 1650.61s-75.9 29.01-101.85 58.5c-11.66 13.25-18.72 30.89-22.97 46.3 35.53-19.15 73.3-34.23 111.03-47.49 13.12-32.47 13.79-57.3 13.79-57.3Z" style="stroke-width:0;fill:#fefdff"/><path d="M1799.59 1755.41c-5.21 18.89-6.2 34.44-6.2 34.44s83.64-17.4 106.85-59.95c4.13-7.57 7.54-14.95 10.39-21.98-37.74 13.26-75.51 28.34-111.03 47.49Z" style="stroke-width:0;fill:#caad70"/><path d="M1831.1 1865.91s29.97-3.29 61.88-13.44c22.65-7.21 37.73-31.68 44.59-45.29-34.72 7.02-68.87 18.52-101.59 31.76-4.29 13.83-4.88 26.98-4.88 26.98Z" style="stroke-width:0;fill:#d0b476"/><path d="M1856.24 1810.16c-10.54 5.27-16.69 17.26-20.26 28.77 32.72-13.23 66.87-24.73 101.59-31.76 2.8-5.57 4.24-9.32 4.24-9.32s-62.37.71-85.57 12.31" style="stroke-width:0;fill:#fdfeff"/><path d="M1845.54 1252.02a7.67 7.67 0 0 0 2.98 10.21c15.88 9.11 56.54 35.05 70.42 68.98 17.4 42.55 11.6 63.82 14.99 73s17.4 31.43 22.24 26.11c4.83-5.32 28.04-46.41 8.7-101.04-18.62-52.6-66.81-77.41-111.8-81.34-3.11-.27-6.09 1.32-7.53 4.09Z" style="stroke-width:0;fill:url(#linear-gradient-32)"/><path d="M2004.32 1199.62c-14.12-6.93-48.94-21.1-79.91-10.23-39.97 14.02-43.19 29.49-43.19 29.49s76.35 17.15 106.24 42.94c7.31-20.18 12.17-41.26 16.86-62.2" style="stroke-width:0;fill:#a48352"/><path d="M1994.03 1185.42s-1.29-32.3-36.1-40.03c-34.81-7.74-50.28 3.87-56.73 3.87s9.67-39.97 52.21-33.52c42.55 6.45 63.17 29.01 63.82 47.7.64 18.69-23.21 21.98-23.21 21.98Z" style="stroke-width:0;fill:#ebd09c"/><path d="M1460.28 1930.72s16.76 62.03 10.31 83.79-44.8 87.51-59.14 101.04c-14.34 13.54-64.62 19.34-64.62 19.34s75.42-96.99 113.45-204.17" style="stroke-width:0;fill:#416892"/><path d="M959.41 2115.55c45.21-31.7 66.03-58.79 72.4-68.1 1.53-2.24 2.23-3.45 2.23-3.45l-44.34-3.06s-6.45 6.93-27.07 28.2c-20.63 21.27-48.35 35.45-79.13 55.44-30.78 19.98-74.29 54.79-74.29 54.79l18.91 3.92c29.85-19.27 62.92-33.42 97.27-43.11 10.47-7.82 21.89-16.13 34.01-24.63Z" style="stroke-width:0;fill:#fcfefa"/><path d="M925.4 2140.18c-34.35 9.69-67.42 23.83-97.27 43.11l33.95 7.04s25.35-21.79 63.32-50.14Z" style="stroke-width:0;fill:#a9b5b8"/><path d="M167.97 1203.07c-2.63 15.76 3.5 91.59 26.79 140.36 16.02 33.8 36.25 64.62 47.2 80.47-12.17 9.54-19 13.22-19 13.22-37.48-53.76-62.52-118.82-76.09-173.9-13.57-55.16-13.57-145.09-13.57-145.09 80.29 58.05 143.6 274.59 143.6 274.59-11.12 11.03-20.75 19.7-28.72 26.27-7.62-57.18-34.76-131.69-46.67-163.04-13.05-34.32-31-68.65-33.54-52.89Z" class="cls-31"/><path d="M1079.41 1186.56c23.05-69.14 58.3-131.3 110.5-176.99-.08-1.28-.15-2.53-.21-3.74-1.45-28.28-21.51-15.71-46.17 20.31s-61.16 109.99-83.64 131.99-46.17-2.42-88.47-70.1-57.53-87.99-69.14-84.85c-11.6 3.14-11.36 45.2-17.4 79.53s-35.29 55.84-27.8 66.48 65.03 50.04 65.03 50.04c-52.94 18.13-96.21-26.59-96.21-26.59l-9.19 8.45c33.51 38.95 88.31 68.81 190.09 74.5 32.89-12.58 60.27-34.03 72.62-69.01Z" style="stroke-width:0;fill:#bc9e5d"/><path d="M1255.21 1168.76s-8.22 8.7-35.29 22.96-52.21 5.08-52.21 5.08c35.29-25.87 61.16-59.47 61.16-59.47s-13.05-14.02-22.48-34.81c-9.02-19.9-14.72-64.37-16.47-92.95-52.2 45.69-87.46 107.85-110.5 176.99-12.35 34.99-39.73 56.43-72.62 69.01 20.09 1.12 41.96 1.33 65.91.45 145.28-5.32 205.96-77.36 205.96-77.36-12.81-4.11-23.45-9.91-23.45-9.91Z" style="stroke-width:0;fill:url(#linear-gradient-33)"/><path d="M1041.18 1014.2c-8.24 0-14.92 6.68-14.92 14.92s6.68 14.93 14.92 14.93 14.93-6.68 14.93-14.93-6.68-14.92-14.93-14.92m13.06 14.93c0 7.21-5.84 13.06-13.06 13.06s-13.06-5.85-13.06-13.06 5.84-13.06 13.06-13.06 13.06 5.84 13.06 13.06" class="cls-31"/><path d="M1465.23 213.08c-.78 1.44-1.52 2.9-2.3 4.35 2.34.48 4.66 1.14 6.92 2.05 10.29 4.17 18.15 12.47 21.99 22.65 2.17-3.14 4.35-6.28 6.45-9.41.27-.4.54-.8.8-1.2 25.83 14.85 51.06 31.09 75.63 48.64-13.03 17.7-25.95 35.51-37.71 53.99-13.7-9.8-27.65-19.11-41.78-28.01-.68 8.85-1.79 18.49-3.52 28.83 220.1 142.93 362.02 385.02 375.83 650.57.73 1.22 1.51 2.4 2.23 3.63.27.46.53.93.78 1.4 6.96 13.16 15.58 30.65 20.62 49.69 5.5 18.93 8.14 38.46 8.02 58.35 17.03-7.8 35.25-12.86 54.14-12.96 10.82-.06 21.42 1.57 31.69 4.46 26.47-401.75-206.63-775.73-573.52-931.39 2.46 10.86 4.2 21.16 5.43 30.99 16.25 7.31 32.37 15.06 48.3 23.37m493.18 750.56c2.13 29.72 2.78 59.72 1.97 89.9-21.96-.9-43.95-1.66-65.85-1.07.83-29.66.1-59.13-2.14-88.31 21.4-1.58 43.46-.46 64.59-.52h1.44Zm-18.1-127.14c6.25 29.13 11.06 58.75 14.46 88.75-21.87 2.16-43.76 4.48-65.36 8.1A848 848 0 0 0 1875 846.2c20.97-4.55 42.98-6.51 63.89-9.5l1.43-.21Zm-35.62-123.37c10.24 27.98 19.13 56.64 26.67 85.88-21.36 5.18-42.71 10.52-63.6 17.12a847 847 0 0 0-26.4-84.3c20.13-7.42 41.65-12.43 61.94-18.3.46-.13.92-.27 1.38-.4Zm-52.44-117.22c14.03 26.28 26.83 53.42 38.36 81.33-20.43 8.11-40.83 16.36-60.6 25.81a846 846 0 0 0-37.87-79.8c18.9-10.15 39.52-18.1 58.79-26.75.44-.2.88-.39 1.32-.59M1784 487.12c17.56 24.07 34 49.17 49.31 75.2-19.1 10.87-38.15 21.89-56.41 33.99a844 844 0 0 0-48.61-73.75c17.31-12.68 36.61-23.43 54.5-34.67.41-.26.81-.51 1.22-.77Zm-82.73-98.22c20.73 21.39 40.51 43.96 59.29 67.61-17.4 13.42-34.74 26.98-51.14 41.51a850 850 0 0 0-58.4-66.27c15.37-14.97 33-28.29 49.14-41.91.37-.31.74-.62 1.1-.93Zm-95.58-85.76c23.51 18.3 46.24 37.89 68.13 58.7-15.36 15.71-30.64 31.56-44.86 48.22a847 847 0 0 0-67.06-57.5c13.14-16.96 28.74-32.61 42.83-48.35.32-.36.64-.71.96-1.07M102.64 1043.13c3.59 4.7 7 9.54 10.45 14.34 1.61 2.24 3.2 4.55 4.93 6.7.17.2.29.34.54.64.75.91 1.51 1.82 2.3 2.71.64.72 1.33 1.41 1.98 2.13 3.13 5.3 6 9.69 8.75 13.32 11.85 15.63 36.45 10.05 41.32-8.95 9.37-36.6 29.84-84.22 43.39-109.08 2.67-33.79 7.41-67.78 14.39-101.84 45.63-222.79 176.87-406.15 352.37-522.85a351 351 0 0 1-4.15-29.72c-7.1 4.55-14.31 8.99-21.25 13.74-12.35-18.14-22.59-38.31-33.47-56.92 24.67-16.71 50.33-32.27 76.87-46.66 1.25 2.39 2.56 4.76 3.82 7.15 3.84-1.21 7.82-1.89 11.83-1.89 5.39 0 10.8 1.11 15.87 3.34 6.02 2.65 11.53 5.91 16.82 9.35-4.83-11.98-9.36-24.08-14.12-35.7 7.04-3.45 14.28-6.57 21.42-9.84 1.5-11.15 3.48-21.58 5.48-30.55-271.76 119.11-483.45 363.94-547.52 676.78-13.38 65.35-19.64 130.5-19.37 194.67 2.52 2.97 4.97 6.02 7.36 9.13Zm390.14-753.45c12.81 17.86 25.75 35.66 39.7 52.55a847 847 0 0 0-68.27 56.05c-14.42-15.89-27.12-33.97-40.17-50.57-.3-.38-.59-.76-.89-1.13 22.1-19.97 45.35-38.95 69.63-56.9m-97.64 83.4c15.17 15.9 30.47 31.73 46.63 46.52a846 846 0 0 0-59.8 65.01c-16.49-13.73-31.59-29.86-46.82-44.49-.35-.33-.69-.67-1.04-1 19.11-22.86 39.48-44.89 61.04-66.04Zm-85.08 96.18c17.23 13.64 34.59 27.18 52.65 39.57a849 849 0 0 0-50.17 72.7c-18.24-11.3-35.44-25.17-52.56-37.54l-1.17-.84c15.74-25.29 32.85-49.94 51.25-73.89M239.2 576.34c18.96 11.11 38.03 22.1 57.64 31.86a845 845 0 0 0-39.57 78.97c-19.64-8.65-38.59-20-57.27-29.86-.43-.22-.85-.45-1.27-.67 12.07-27.24 25.58-54.03 40.47-80.3m-55.28 115.9c20.32 8.36 40.74 16.59 61.51 23.53a848 848 0 0 0-28.19 83.71c-20.65-5.83-41-14.43-60.87-21.6-.45-.16-.9-.33-1.36-.49 8.16-28.65 17.81-57.07 28.9-85.15Zm-38.6 122.47c21.29 5.45 42.65 10.76 64.19 14.74a849 849 0 0 0-16.27 86.82c-21.26-2.9-42.61-8.58-63.28-12.92l-1.41-.3c4.09-29.51 9.7-58.99 16.77-88.35Zm-21.19 126.64c21.84 2.43 43.73 4.72 65.62 5.66a847 847 0 0 0-4.02 88.24c-21.46.09-43.39-2.57-64.46-3.99-.48-.03-.96-.07-1.44-.1-.05-29.79 1.4-59.76 4.31-89.82ZM361.88 440.6c-.89-.88-1.76-1.75-2.64-2.62a901 901 0 0 1 35.64-38.62c6.64 6.85 13.48 13.77 20.52 20.61a870 870 0 0 0-35.3 38.38c-6.18-5.8-12.26-11.83-18.21-17.75Zm88.57-88.68-2.25-2.97a898 898 0 0 1 40.67-33.28c5.63 7.71 11.43 15.52 17.45 23.27a871 871 0 0 0-40.3 33.09c-5.31-6.6-10.49-13.42-15.57-20.11m98.22-78.75c9.85-6.39 19.97-12.57 30.19-18.64-.81 2.84-1.34 5.78-1.5 8.79-.05.98-.51 11.07.1 26.13-4.8 3-9.63 5.97-14.36 9.06-4.34-7.27-8.52-14.75-12.62-22.08-.61-1.09-1.21-2.17-1.82-3.25Zm983.39 35.1c-11.76-8.03-23.78-15.7-35.91-23.14.05-6.12-.1-11.54-.34-16.23 2.23-3.25 4.42-6.55 6.64-9.75l2.13-3.06a898 898 0 0 1 44.22 28.4c-5.59 7.73-11.22 15.67-16.74 23.79Zm-113.23-97.5c6.64 3.08 13.26 6.23 19.85 9.49-2.39 1.09-4.73 2.35-6.9 3.94-2.44 1.78-7.09 5.33-12.86 10.19.32-7.45.31-15.33-.1-23.62Zm447.51 456.38c-8.84 3.59-17.82 7.34-26.8 11.3a874 874 0 0 0-22.36-47.11c7.69-3.56 15.56-6.93 23.28-10.24l3.42-1.47a900 900 0 0 1 22.45 47.51Zm74.78 314.77c.9 17.34 1.3 34.92 1.18 52.54-9.54-.31-19.27-.54-29.08-.57.1-17.38-.32-34.82-1.26-52.13 8.47-.12 17.03 0 25.43.12 1.24.01 2.49.03 3.72.05Zm-133.25-426.2c-8.25 4.79-16.63 9.75-24.96 14.92a872 872 0 0 0-28.7-43.54c7.12-4.59 14.44-9.03 21.63-13.38 1.06-.65 2.13-1.29 3.19-1.93a894 894 0 0 1 28.85 43.93ZM142.06 1014.46c-1.24-.1-2.48-.21-3.71-.31.31-17.36 1.14-34.92 2.48-52.49 9.49.98 19.18 1.88 28.97 2.6a872 872 0 0 0-2.38 52.09c-8.46-.47-16.99-1.19-25.36-1.89m1783.67-157.45c3.31 17.05 6.15 34.4 8.49 51.86-9.49 1.02-19.15 2.15-28.88 3.48a873 873 0 0 0-8.51-51.45c8.37-1.3 16.87-2.37 25.2-3.43 1.24-.16 2.47-.31 3.7-.47ZM1647.54 362.5c-6.61 6.88-13.29 13.96-19.88 21.23a873 873 0 0 0-39.59-33.94c5.58-6.37 11.4-12.66 17.1-18.82.84-.92 1.69-1.83 2.53-2.73a904 904 0 0 1 39.84 34.27ZM286.53 540.75c-1-.74-1.99-1.49-2.98-2.23a899 899 0 0 1 29.92-43.2c7.53 5.86 15.27 11.76 23.19 17.56-10.3 14-20.2 28.36-29.62 42.92-6.92-4.88-13.78-10.01-20.51-15.04ZM152.9 889.59c-1.21-.27-2.42-.55-3.63-.83 2.72-17.15 5.99-34.43 9.76-51.64 9.26 2.29 18.73 4.54 28.32 6.61a870 870 0 0 0-9.6 51.26c-8.31-1.64-16.66-3.54-24.85-5.4m28.11-122.14c-1.17-.44-2.32-.88-3.48-1.32a889 889 0 0 1 16.86-49.77c8.86 3.56 17.92 7.1 27.13 10.49a869 869 0 0 0-16.64 49.42c-8-2.78-16.01-5.82-23.86-8.81Zm44.83-117.04c-1.09-.6-2.18-1.19-3.27-1.79a900 900 0 0 1 23.62-46.95c8.27 4.75 16.76 9.52 25.41 14.16a870 870 0 0 0-23.36 46.62c-7.53-3.87-15.04-7.99-22.4-12.04M1734.46 453.5c-7.51 5.89-15.11 11.97-22.64 18.25a873 873 0 0 0-34.48-39.12c6.41-5.54 13.05-10.95 19.56-16.26.96-.79 1.93-1.57 2.89-2.36a899 899 0 0 1 34.68 39.49Zm174.27 332.14c-9.25 2.33-18.67 4.79-28.11 7.46-4.7-16.73-9.91-33.38-15.58-49.76 8.11-2.45 16.37-4.7 24.48-6.9 1.2-.33 2.4-.65 3.6-.98a892 892 0 0 1 15.62 50.18Z" style="stroke-width:0;fill:url(#linear-gradient-34)"/><path d="M931.88 172.09s46.49-46.61 100.68-48.12c66.81-1.87 108.86 43.22 114.23 44.38s16.59-1.17 10.98-15.65-53.96-58.87-124.74-55.83-110.73 50.22-116.57 62.6 8.88 16.82 15.42 12.61Z" class="cls-49"/><path d="M1529.74 1445.3s5.8 45.54-10.15 91.67c-15.95 46.12-76.87 147.65-110.23 210.99-33.36 63.33-125.22 189.04-182.27 259.14s-80.26 97.66-128.12 131.99-74.94 55.28-74.94 55.28h-49.8s169.4-173.73 221.28-236.58 132.62-163.41 160.66-200.64 62.37-111.36 62.37-111.36l111.2-200.48Z" style="stroke-width:0;fill:url(#linear-gradient-35)"/><path d="M1460 1599.29c-26.69 42.15-57.09 78.99-87.46 109.52-30.37 30.6-60.63 54.91-86.95 73.73-26.69 18.41-49.23 31.6-65.15 40-16.04 8.08-24.93 12.56-24.93 12.56s7.72-6.24 21.63-17.51c13.83-11.29 33.33-28.18 56.39-49.75 45.59-43.76 103.74-108.43 154.37-188.93 25.26-40.22 41.76-71.9 53.29-96.03 6.17-11.9 10.59-22.14 14.72-30.51 4.16-8.36 7.5-15.05 10.19-20.45 11.08-21.41 15.64-20.04 20.62-18.41 4.99 1.63 9.56 2.95 4.68 27.47-1.12 6.17-3.1 13.7-6.16 22.92-3 9.24-6.53 20.4-12.07 33.27-10.29 26.05-26.64 59.88-53.17 102.11Z" style="stroke-width:0;fill:url(#linear-gradient-36)"/></svg>